<?xml version="1.0" encoding="utf-8"?>
<!-- Generator: Adobe Illustrator 16.0.0, SVG Export Plug-In . SVG Version: 6.00 Build 0)  -->
<!DOCTYPE svg PUBLIC "-//W3C//DTD SVG 1.1//EN" "http://www.w3.org/Graphics/SVG/1.1/DTD/svg11.dtd">
<svg version="1.1" id="Layer_1" xmlns="http://www.w3.org/2000/svg" xmlns:xlink="http://www.w3.org/1999/xlink" x="0px" y="0px"
	 width="456px" height="384px" viewBox="0 0 456 384" enable-background="new 0 0 456 384" xml:space="preserve">
<rect x="7.393" y="5" fill="#FFFFFF" stroke="#000000" stroke-width="2" stroke-miterlimit="10" width="440" height="371"/>
<line fill="none" stroke="#000000" stroke-width="2" stroke-miterlimit="10" x1="51.393" y1="62" x2="403.393" y2="62"/>
<text transform="matrix(1 0 0 1 209.2144 49)" font-family="'MyriadPro-BoldCond'" font-size="14">ściana</text>
<circle cx="106" cy="168" r="18"/>
<circle fill="#6D6E71" cx="106" cy="298" r="18"/>
<circle fill="none" stroke="#000000" stroke-miterlimit="10" cx="361" cy="164" r="9"/>
<text transform="matrix(1 0 0 1 378 146)" font-family="'MyriadPro-BoldCond'" font-size="14">cel</text>
<text transform="matrix(1 0 0 1 73 173)" font-family="'MyriadPro-BoldCond'" font-size="14">i</text>
<text transform="matrix(1 0 0 1 73 305.5)" font-family="'MyriadPro-BoldCond'" font-size="14">j</text>
<g>
	<g>
		<line fill="none" stroke="#000000" stroke-width="0.8256" stroke-miterlimit="10" x1="106" y1="168" x2="106" y2="134.648"/>
		<g>
			<polygon points="108.398,136.284 106,127.334 103.602,136.284 			"/>
		</g>
	</g>
</g>
<g>
	<g>
		
			<line fill="none" stroke="#000000" stroke-width="0.8669" stroke-miterlimit="10" x1="105.999" y1="168" x2="132.277" y2="141.723"/>
		<g>
			<polygon points="132.843,144.718 137.708,136.292 129.281,141.156 			"/>
		</g>
	</g>
</g>
<g>
	<g>
		<line fill="none" stroke="#000000" stroke-miterlimit="10" x1="106" y1="167.997" x2="156.806" y2="167.999"/>
		<g>
			<polygon points="154.824,170.904 165.665,167.999 154.824,165.093 			"/>
		</g>
	</g>
</g>
<g>
	<g>
		
			<line fill="none" stroke="#000000" stroke-width="0.8721" stroke-miterlimit="10" x1="106" y1="167.997" x2="132.621" y2="194.619"/>
		<g>
			<polygon points="129.607,195.188 138.083,200.082 133.19,191.605 			"/>
		</g>
	</g>
</g>
<g>
	<g>
		<line fill="none" stroke="#000000" stroke-width="0.7981" stroke-miterlimit="10" x1="106.001" y1="198.931" x2="106" y2="168"/>
		<g>
			<polygon points="108.319,197.349 106.001,206.001 103.682,197.349 			"/>
		</g>
	</g>
</g>
<g>
	<text transform="matrix(1 0 0 1 83.959 208.001)" font-family="'TimesNewRomanPS-ItalicMT'" font-size="14">f</text>
	<text transform="matrix(0.583 0 0 0.583 87.8486 212.6631)" font-family="'TimesNewRomanPS-ItalicMT'" font-size="14">iw</text>
	<g>
		<g>
			
				<line fill="none" stroke="#000000" stroke-width="0.3" stroke-miterlimit="10" x1="86.875" y1="196.334" x2="92.343" y2="196.334"/>
			<g>
				<polygon points="91.748,197.206 95,196.334 91.748,195.463 				"/>
			</g>
		</g>
	</g>
</g>
<g>
	<text transform="matrix(1 0 0 1 142.2925 208.001)" font-family="'TimesNewRomanPS-ItalicMT'" font-size="14">f</text>
	<text transform="matrix(0.583 0 0 0.583 146.1821 212.6631)" font-family="'TimesNewRomanPS-ItalicMT'" font-size="14">i</text>
	<text transform="matrix(0.583 0 0 0.583 148.4497 203.3389)" font-family="'TimesNewRomanPS-ItalicMT'" font-size="14">o</text>
	<g>
		<g>
			
				<line fill="none" stroke="#000000" stroke-width="0.3" stroke-miterlimit="10" x1="145.209" y1="196.334" x2="150.676" y2="196.334"/>
			<g>
				<polygon points="150.082,197.206 153.334,196.334 150.082,195.463 				"/>
			</g>
		</g>
	</g>
</g>
<g>
	<text transform="matrix(1 0 0 1 85.417 130.459)" font-family="'TimesNewRomanPS-ItalicMT'" font-size="14">f</text>
	<text transform="matrix(0.583 0 0 0.583 89.3066 135.1211)" font-family="'TimesNewRomanPS-ItalicMT'" font-size="14">ij</text>
	<g>
		<g>
			
				<line fill="none" stroke="#000000" stroke-width="0.3" stroke-miterlimit="10" x1="88.333" y1="118.792" x2="93.801" y2="118.792"/>
			<g>
				<polygon points="93.206,119.664 96.458,118.792 93.206,117.921 				"/>
			</g>
		</g>
	</g>
</g>
<g>
	<text transform="matrix(1 0 0 1 168.959 158.001)" font-family="'TimesNewRomanPS-ItalicMT'" font-size="14">v</text>
	<text transform="matrix(0.583 0 0 0.583 175.1729 162.6631)" font-family="'TimesNewRomanPS-ItalicMT'" font-size="14">i</text>
	<text transform="matrix(0.583 0 0 0.583 177.4404 153.3389)" font-family="'TimesNewRomanPS-ItalicMT'" font-size="14">0</text>
	<text transform="matrix(1 0 0 1 181.5215 158.001)" font-family="'TimesNewRomanPS-ItalicMT'" font-size="14">e</text>
	<text transform="matrix(0.583 0 0 0.583 187.7354 162.6631)" font-family="'TimesNewRomanPS-ItalicMT'" font-size="14">i</text>
	<text transform="matrix(0.583 0 0 0.583 190.0029 153.3389)" font-family="'TimesNewRomanPS-ItalicMT'" font-size="14">o</text>
	<g>
		<g>
			<line fill="none" stroke="#000000" stroke-width="0.3" stroke-miterlimit="10" x1="183.542" y1="146" x2="189.009" y2="146"/>
			<g>
				<polygon points="188.415,146.872 191.667,146 188.415,145.128 				"/>
			</g>
		</g>
	</g>
</g>
<g>
	<text transform="matrix(1 0 0 1 126.355 130.459)" font-family="'TimesNewRomanPS-ItalicMT'" font-size="14">v</text>
	<text transform="matrix(0.583 0 0 0.583 132.5688 135.1211)" font-family="'TimesNewRomanPS-ItalicMT'" font-size="14">i</text>
	<g>
		<g>
			
				<line fill="none" stroke="#000000" stroke-width="0.3" stroke-miterlimit="10" x1="129.271" y1="118.792" x2="134.739" y2="118.792"/>
			<g>
				<polygon points="134.144,119.664 137.396,118.792 134.144,117.921 				"/>
			</g>
		</g>
	</g>
</g>
</svg>
