<?xml version="1.0" encoding="utf-8"?>
<!-- Generator: Adobe Illustrator 19.0.0, SVG Export Plug-In . SVG Version: 6.00 Build 0)  -->
<svg version="1.1" id="Warstwa_1" xmlns="http://www.w3.org/2000/svg" xmlns:xlink="http://www.w3.org/1999/xlink" x="0px" y="0px"
	 viewBox="0 0 309.6 431.7" style="enable-background:new 0 0 309.6 431.7;" xml:space="preserve">
<rect id="XMLID_1_" style="fill:#FFFFFF;stroke:#000000;stroke-miterlimit:10;" width="141.7" height="42.5"/>
<rect id="XMLID_3_" x="167.9" y="0.9" style="fill:#FFFFFF;stroke:#000000;stroke-miterlimit:10;" width="141.7" height="42.5"/>
<g id="XMLID_2_">
	<g id="XMLID_14_">
		<line id="XMLID_17_" style="fill:none;stroke:#000000;stroke-miterlimit:10;" x1="70.9" y1="43.4" x2="141.2" y2="113.7"/>
		<g id="XMLID_15_">
			<polygon id="XMLID_16_" points="137.7,114.4 147.4,120 141.8,110.3 			"/>
		</g>
	</g>
</g>
<g id="XMLID_4_">
	<g id="XMLID_20_">
		<line id="XMLID_23_" style="fill:none;stroke:#000000;stroke-miterlimit:10;" x1="243.3" y1="43.4" x2="173" y2="113.7"/>
		<g id="XMLID_21_">
			<polygon id="XMLID_22_" points="172.3,110.3 166.7,120 176.4,114.4 			"/>
		</g>
	</g>
</g>
<rect id="XMLID_5_" x="70.9" y="106.7" style="fill:none;stroke:#000000;stroke-miterlimit:10;" width="172.4" height="253"/>
<rect id="XMLID_6_" x="88.5" y="120" style="fill:#FFFFFF;stroke:#000000;stroke-miterlimit:10;" width="141.7" height="42.5"/>
<rect id="XMLID_8_" x="88.8" y="289.7" style="fill:#FFFFFF;stroke:#000000;stroke-miterlimit:10;" width="141.7" height="42.5"/>
<g id="XMLID_9_">
	<g id="XMLID_30_">
		<line id="XMLID_33_" style="fill:none;stroke:#000000;stroke-miterlimit:10;" x1="159.7" y1="162.5" x2="159.7" y2="195.7"/>
		<g id="XMLID_31_">
			<polygon id="XMLID_32_" points="156.8,193.7 159.7,204.6 162.6,193.7 			"/>
		</g>
	</g>
</g>
<g id="XMLID_10_">
	<g id="XMLID_12_">
		<line id="XMLID_25_" style="fill:none;stroke:#000000;stroke-miterlimit:10;" x1="159.7" y1="247.3" x2="159.7" y2="280.6"/>
		<g id="XMLID_18_">
			<polygon id="XMLID_24_" points="156.8,278.6 159.7,289.4 162.6,278.6 			"/>
		</g>
	</g>
</g>
<g id="XMLID_26_">
	<g id="XMLID_42_">
		<line id="XMLID_45_" style="fill:none;stroke:#000000;stroke-miterlimit:10;" x1="159.7" y1="332.2" x2="159.7" y2="380.3"/>
		<g id="XMLID_43_">
			<polygon id="XMLID_44_" points="156.8,378.3 159.7,389.2 162.6,378.3 			"/>
		</g>
	</g>
</g>
<rect id="XMLID_27_" x="88.8" y="389.2" style="fill:#FFFFFF;stroke:#000000;stroke-miterlimit:10;" width="141.7" height="42.5"/>
<text id="XMLID_28_" transform="matrix(1 0 0 1 25.0656 17.9215)"><tspan x="0" y="0" style="font-family:'TimesNewRomanPSMT'; font-size:11px;">Rozpoznanie sytuacji </tspan><tspan x="0" y="13.2" style="font-family:'TimesNewRomanPSMT'; font-size:11px;">oraz otoczenia</tspan></text>
<text id="XMLID_34_" transform="matrix(1 0 0 1 207.6425 24.5219)" style="font-family:'TimesNewRomanPSMT'; font-size:11px;">Osobiste cele</text>
<text id="XMLID_35_" transform="matrix(1 0 0 1 103.8989 145.5635)" style="font-family:'TimesNewRomanPSMT'; font-size:11px;">Przetwarzenia informacji</text>
<g id="XMLID_39_">
	<rect id="XMLID_7_" x="88.5" y="206.9" style="fill:#FFFFFF;stroke:#000000;stroke-miterlimit:10;" width="141.7" height="42.5"/>
	<text id="XMLID_36_" transform="matrix(1 0 0 1 141.3141 231.0575)" style="font-family:'TimesNewRomanPSMT'; font-size:11px;">Decyzja</text>
</g>
<rect id="XMLID_37_" x="94.3" y="300.7" style="fill:none;" width="130.9" height="34.5"/>
<text id="XMLID_38_" transform="matrix(0.98 0 0 1 94.2757 308.3023)"><tspan x="0" y="0" style="font-family:'TimesNewRomanPSMT'; font-size:11px;">Uwarunkowania psychologiczne: </tspan><tspan x="135.2" y="0" style="font-family:'TimesNewRomanPSMT'; font-size:11px; letter-spacing:8.2;">	</tspan><tspan x="19.6" y="13.2" style="font-family:'TimesNewRomanPSMT'; font-size:11px;">motywacja do działania</tspan></text>
<rect id="XMLID_46_" x="94.3" y="400.3" style="fill:none;" width="130.9" height="34.5"/>
<text id="XMLID_40_" transform="matrix(0.98 0 0 1 105.0614 407.969)"><tspan x="0" y="0" style="font-family:'TimesNewRomanPSMT'; font-size:11px;">Rzeczywista realizacja celu:</tspan><tspan x="3.8" y="13.2" style="font-family:'TimesNewRomanPSMT'; font-size:11px;">zmiana zachowania, akcja</tspan></text>
</svg>
