<?xml version="1.0" encoding="utf-8"?>
<!-- Generator: Adobe Illustrator 16.0.0, SVG Export Plug-In . SVG Version: 6.00 Build 0)  -->
<!DOCTYPE svg PUBLIC "-//W3C//DTD SVG 1.1//EN" "http://www.w3.org/Graphics/SVG/1.1/DTD/svg11.dtd">
<svg version="1.1" id="Warstwa_1" xmlns="http://www.w3.org/2000/svg" xmlns:xlink="http://www.w3.org/1999/xlink" x="0px" y="0px"
	 width="595.279px" height="841.891px" viewBox="0 0 595.279 841.891" enable-background="new 0 0 595.279 841.891"
	 xml:space="preserve">
<rect id="XMLID_1_" x="0" y="5.922" fill="#FFFFFF" stroke="#000000" stroke-miterlimit="10" width="272.452" height="81.716"/>
<rect id="XMLID_3_" x="322.827" y="7.652" fill="#FFFFFF" stroke="#000000" stroke-miterlimit="10" width="272.452" height="81.716"/>
<g id="XMLID_2_">
	<g id="XMLID_14_">
		<line id="XMLID_17_" fill="none" stroke="#000000" stroke-miterlimit="10" x1="136.323" y1="89.369" x2="271.49" y2="224.537"/>
		<g id="XMLID_15_">
			<polygon id="XMLID_16_" points="264.761,225.883 283.411,236.65 272.645,218 			"/>
		</g>
	</g>
</g>
<g id="XMLID_4_">
	<g id="XMLID_20_">
		<line id="XMLID_23_" fill="none" stroke="#000000" stroke-miterlimit="10" x1="467.802" y1="89.369" x2="332.634" y2="224.537"/>
		<g id="XMLID_21_">
			<polygon id="XMLID_22_" points="331.287,218 320.521,236.65 339.171,225.883 			"/>
		</g>
	</g>
</g>
<rect id="XMLID_5_" x="136.323" y="211.078" fill="none" stroke="#000000" stroke-miterlimit="10" width="331.479" height="486.453"/>
<rect id="XMLID_6_" x="170.162" y="236.65" fill="#FFFFFF" stroke="#000000" stroke-miterlimit="10" width="272.452" height="81.716"/>
<rect id="XMLID_8_" x="170.74" y="562.939" fill="#FFFFFF" stroke="#000000" stroke-miterlimit="10" width="272.452" height="81.717"/>
<g id="XMLID_9_">
	<g id="XMLID_30_">
		<line id="XMLID_33_" fill="none" stroke="#000000" stroke-miterlimit="10" x1="307.062" y1="318.367" x2="307.062" y2="382.202"/>
		<g id="XMLID_31_">
			<polygon id="XMLID_32_" points="301.486,378.356 307.062,399.314 312.637,378.356 			"/>
		</g>
	</g>
</g>
<g id="XMLID_10_">
	<g id="XMLID_12_">
		<line id="XMLID_25_" fill="none" stroke="#000000" stroke-miterlimit="10" x1="307.062" y1="481.415" x2="307.062" y2="545.442"/>
		<g id="XMLID_18_">
			<polygon id="XMLID_24_" points="301.486,541.597 307.062,562.362 312.637,541.597 			"/>
		</g>
	</g>
</g>
<g id="XMLID_26_">
	<g id="XMLID_42_">
		<line id="XMLID_45_" fill="none" stroke="#000000" stroke-miterlimit="10" x1="307.062" y1="644.656" x2="307.062" y2="737.14"/>
		<g id="XMLID_43_">
			<polygon id="XMLID_44_" points="301.486,733.294 307.062,754.252 312.637,733.294 			"/>
		</g>
	</g>
</g>
<rect id="XMLID_27_" x="170.74" y="754.252" fill="#FFFFFF" stroke="#000000" stroke-miterlimit="10" width="272.452" height="81.717"/>
<text transform="matrix(1 0 0 1 48.1946 40.3809)" font-family="'TimesNewRomanPSMT'" font-size="21.1501">Rozpoznanie sytuacji </text>
<text transform="matrix(1 0 0 1 48.1946 65.7598)" font-family="'TimesNewRomanPSMT'" font-size="21.1501">oraz otoczenia</text>
<text id="XMLID_34_" transform="matrix(1 0 0 1 399.2424 53.0703)" font-family="'TimesNewRomanPSMT'" font-size="21.1501">Osobiste cele</text>
<text id="XMLID_35_" transform="matrix(1 0 0 1 199.7708 285.8027)" font-family="'TimesNewRomanPSMT'" font-size="21.1501">Przetwarzenia informacji</text>
<g id="XMLID_39_">
	
		<rect id="XMLID_7_" x="170.162" y="403.736" fill="#FFFFFF" stroke="#000000" stroke-miterlimit="10" width="272.452" height="81.717"/>
	<text id="XMLID_36_" transform="matrix(1 0 0 1 271.7102 450.1855)" font-family="'TimesNewRomanPSMT'" font-size="21.1501">Decyzja</text>
</g>
<rect id="XMLID_37_" x="181.315" y="584.09" fill="none" width="251.687" height="66.334"/>
<text transform="matrix(0.98 0 0 1 179.2673 598.707)" font-family="'TimesNewRomanPSMT'" font-size="19">Uwarunkowania psychologiczne: </text>
<text transform="matrix(0.98 0 0 1 434.0217 598.707)" font-family="'TimesNewRomanPSMT'" font-size="19" letter-spacing="13.265"> </text>
<text transform="matrix(0.98 0 0 1 216.199 624.0879)" font-family="'TimesNewRomanPSMT'" font-size="19">motywacja do działania</text>
<rect id="XMLID_46_" x="181.315" y="775.595" fill="none" width="251.687" height="66.334"/>
<text transform="matrix(0.98 0 0 1 189.0291 790.3398)" font-family="'TimesNewRomanPSMT'" font-size="21.1501">Rzeczywista realizacja celu:</text>
<text transform="matrix(0.98 0 0 1 196.1902 815.7207)" font-family="'TimesNewRomanPSMT'" font-size="21.1501">zmiana zachowania, akcja</text>
</svg>
