<svg xmlns="http://www.w3.org/2000/svg" xmlns:xlink="http://www.w3.org/1999/xlink" xmlns:lucid="lucid" width="1092.23" height="1522"><g transform="translate(-168.11111111111111 -59)" lucid:page-tab-id="YGcM5DNywbTK"><g filter="url(#a)"><path d="M733.53 1244.7c3.57-2.6 9.37-2.6 12.94 0l138.06 100.6c3.57 2.6 3.57 6.8 0 9.4l-138.06 100.6c-3.57 2.6-9.37 2.6-12.94 0l-138.06-100.6c-3.57-2.6-3.57-6.8 0-9.4z" stroke="#3d4752" stroke-width="4" fill="#fff"/><use xlink:href="#b" transform="matrix(1,0,0,1,604,1255) translate(28.24074074074072 83.75555555555555)"/><use xlink:href="#c" transform="matrix(1,0,0,1,604,1255) translate(77.06172839506172 83.75555555555555)"/><use xlink:href="#d" transform="matrix(1,0,0,1,604,1255) translate(159.69753086419752 83.75555555555555)"/><use xlink:href="#e" transform="matrix(1,0,0,1,604,1255) translate(216.5987654320988 83.75555555555555)"/><use xlink:href="#f" transform="matrix(1,0,0,1,604,1255) translate(96.00617283950616 116.02222222222223)"/></g><g filter="url(#g)"><path d="M256.66 770c0-4.42 3.58-8 8-8H488c4.42 0 8 3.58 8 8v151.6c0 4.42-3.58 8-8 8H264.66c-4.42 0-8-3.58-8-8z" stroke="#3d4752" stroke-width="4" fill="#fff"/><use xlink:href="#h" transform="matrix(1,0,0,1,271.6611570247934,777) translate(42.888888888888886 21.53333333333334)"/><use xlink:href="#i" transform="matrix(1,0,0,1,271.6611570247934,777) translate(59.85185185185185 56.73333333333334)"/><use xlink:href="#j" transform="matrix(1,0,0,1,271.6611570247934,777) translate(11.03703703703701 91.93333333333334)"/><use xlink:href="#k" transform="matrix(1,0,0,1,271.6611570247934,777) translate(132.37037037037038 91.93333333333334)"/><use xlink:href="#l" transform="matrix(1,0,0,1,271.6611570247934,777) translate(53.185185185185176 127.13333333333335)"/></g><g filter="url(#m)"><path d="M792.62 80c19.37 0 35.08 17.9 35.08 40s-15.7 40-35.08 40H687.38c-19.37 0-35.08-17.9-35.08-40s15.7-40 35.08-40z" stroke="#3d4752" stroke-width="4" fill="#ffdba9"/><use xlink:href="#n" transform="matrix(1,0,0,1,667.2998951629929,95) translate(44.888888888888886 30.333333333333336)"/></g><g filter="url(#o)"><path d="M999.66 1028c0-4.42 3.58-8 8-8H1231c4.42 0 8 3.58 8 8v155.4c0 4.42-3.58 8-8 8h-223.34c-4.42 0-8-3.58-8-8z" stroke="#3d4752" stroke-width="4" fill="#fff"/><use xlink:href="#p" transform="matrix(1,0,0,1,1014.6611570247934,1035) translate(31.111111111111114 58.733333333333334)"/><use xlink:href="#q" transform="matrix(1,0,0,1,1014.6611570247934,1035) translate(54.74074074074073 93.93333333333334)"/></g><g filter="url(#r)"><path d="M620 270c0-4.42 3.58-8 8-8h223.34c4.42 0 8 3.58 8 8v104c0 4.42-3.58 8-8 8H628c-4.42 0-8-3.58-8-8z" stroke="#3d4752" stroke-width="4" fill="#fff"/><use xlink:href="#s" transform="matrix(1,0,0,1,635,277) translate(0.7777777777777715 50.333333333333336)"/><use xlink:href="#t" transform="matrix(1,0,0,1,635,277) translate(144.11111111111111 50.333333333333336)"/></g><path d="M861.34 322H967.2" stroke="#3d4752" stroke-width="4" fill="none"/><path d="M861.34 324h-2v-4h2zM982.2 322l-14.28 4.64v-9.28z" fill="#3d4752"/><path d="M988.66 322l-22.74 7.4v-14.8zm-18.74 1.88l5.8-1.88-5.8-1.88z" fill="#3d4752"/><path d="M740 162v49h-.5v27.53" stroke="#3d4752" stroke-width="4" fill="none"/><path d="M742 162h-4v-2h4zM739.5 253.53l-4.64-14.27h9.27z" fill="#3d4752"/><path d="M739.5 260l-7.4-22.74h14.8zm-1.88-18.74l1.88 5.8 1.88-5.8z" fill="#3d4752"/><g filter="url(#m)"><path d="M1172.62 1480c19.37 0 35.08 17.9 35.08 40s-15.7 40-35.08 40h-105.24c-19.37 0-35.08-17.9-35.08-40s15.7-40 35.08-40z" stroke="#3d4752" stroke-width="4" fill="#ffdba9"/><use xlink:href="#u" transform="matrix(1,0,0,1,1047.299895162993,1495) translate(49.29629629629629 30.333333333333336)"/></g><path d="M1122 1456.53h-4V1352h-30.96v-4H1122zM889.1 1352v-4h160.97v4z" fill="#494949"/><path d="M889.1 1352h-2.42l.33-.6.15-2.17-.48-1.23h2.44zM1120 1471.53l-4.64-14.27h9.28z" fill="#494949"/><path d="M1120 1478l-7.4-22.74h14.8zm-1.88-18.74l1.88 5.8 1.88-5.8z" fill="#494949"/><use xlink:href="#v" transform="matrix(1,0,0,1,1050.0651711119847,1336.6666666666667) translate(0 17.777777777777782)"/><g filter="url(#r)"><path d="M990.66 270c0-4.42 3.58-8 8-8H1222c4.42 0 8 3.58 8 8v104c0 4.42-3.58 8-8 8H998.66c-4.42 0-8-3.58-8-8z" stroke="#3d4752" stroke-width="4" fill="#fff"/><use xlink:href="#w" transform="matrix(1,0,0,1,1005.6611570247933,277) translate(22.185185185185176 32.733333333333334)"/><use xlink:href="#x" transform="matrix(1,0,0,1,1005.6611570247933,277) translate(72.48148148148148 67.93333333333334)"/></g><g filter="url(#y)"><path d="M990.66 513.8c0-4.42 3.58-8 8-8H1222c4.42 0 8 3.58 8 8v116.4c0 4.42-3.58 8-8 8H998.66c-4.42 0-8-3.58-8-8z" stroke="#3d4752" stroke-width="4" fill="#fff"/><use xlink:href="#z" transform="matrix(1,0,0,1,1005.6611570247933,520.8) translate(33.33333333333333 21.633333333333326)"/><use xlink:href="#A" transform="matrix(1,0,0,1,1005.6611570247933,520.8) translate(40.74074074074073 21.633333333333326)"/><use xlink:href="#B" transform="matrix(1,0,0,1,1005.6611570247933,520.8) translate(3.666666666666657 56.83333333333333)"/><use xlink:href="#C" transform="matrix(1,0,0,1,1005.6611570247933,520.8) translate(114.70370370370371 56.83333333333333)"/><use xlink:href="#D" transform="matrix(1,0,0,1,1005.6611570247933,520.8) translate(61.4074074074074 92.03333333333333)"/><use xlink:href="#E" transform="matrix(1,0,0,1,1005.6611570247933,520.8) translate(104.2962962962963 92.03333333333333)"/></g><path d="M1110.33 384v59.9h-.34v38.43" stroke="#494949" stroke-width="4" fill="none"/><path d="M1112.33 384h-4v-2h4zM1110 497.33l-4.64-14.27h9.27z" fill="#494949"/><path d="M1110 503.8l-7.4-22.74h14.78zm-1.9-18.74l1.9 5.8 1.88-5.8z" fill="#494949"/><g filter="url(#F)"><path d="M623.33 520c0-4.42 3.58-8 8-8h223.34c4.42 0 8 3.58 8 8v104c0 4.42-3.58 8-8 8H631.33c-4.42 0-8-3.58-8-8z" stroke="#3d4752" stroke-width="4" fill="#fff"/><use xlink:href="#h" transform="matrix(1,0,0,1,638.3305785123966,527) translate(42.888888888888886 32.733333333333334)"/><use xlink:href="#G" transform="matrix(1,0,0,1,638.3305785123966,527) translate(23.59259259259258 67.93333333333334)"/><use xlink:href="#H" transform="matrix(1,0,0,1,638.3305785123966,527) translate(119.81481481481482 67.93333333333334)"/></g><path d="M988.66 572H886.14" stroke="#494949" stroke-width="4" fill="none"/><path d="M990.66 574h-2v-4h2zM885.4 576.64L871.15 572l14.27-4.64z" fill="#494949"/><path d="M887.4 579.4l-22.73-7.4 22.74-7.4zm-9.8-7.4l5.8 1.88v-3.76z" fill="#494949"/><g filter="url(#F)"><path d="M256 520c0-4.42 3.58-8 8-8h223.34c4.42 0 8 3.58 8 8v104c0 4.42-3.58 8-8 8H264c-4.42 0-8-3.58-8-8z" stroke="#3d4752" stroke-width="4" fill="#fff"/><use xlink:href="#I" transform="matrix(1,0,0,1,271,527) translate(26.666666666666657 32.733333333333334)"/><use xlink:href="#J" transform="matrix(1,0,0,1,271,527) translate(158.2962962962963 32.733333333333334)"/><use xlink:href="#K" transform="matrix(1,0,0,1,271,527) translate(14.037037037037024 67.93333333333334)"/><use xlink:href="#L" transform="matrix(1,0,0,1,271,527) translate(34.77777777777777 67.93333333333334)"/><use xlink:href="#M" transform="matrix(1,0,0,1,271,527) translate(139.81481481481484 67.93333333333334)"/></g><path d="M621.33 572H518.8" stroke="#494949" stroke-width="4" fill="none"/><path d="M623.33 574h-2v-4h2zM518.08 576.64L503.8 572l14.28-4.64z" fill="#494949"/><path d="M520.08 579.4l-22.74-7.4 22.74-7.4zm-9.8-7.4l5.8 1.88v-3.76z" fill="#494949"/><g filter="url(#N)"><path d="M623.5 752.6c0-4.42 3.58-8 8-8h224c4.42 0 8 3.58 8 8v186.8c0 4.42-3.58 8-8 8h-224c-4.42 0-8-3.58-8-8z" stroke="#3d4752" stroke-width="4" fill="#fff"/><use xlink:href="#h" transform="matrix(1,0,0,1,638.5,759.6) translate(42.888888888888886 21.43333333333333)"/><use xlink:href="#O" transform="matrix(1,0,0,1,638.5,759.6) translate(51.66666666666666 56.63333333333333)"/><use xlink:href="#P" transform="matrix(1,0,0,1,638.5,759.6) translate(25.814814814814795 91.83333333333334)"/><use xlink:href="#Q" transform="matrix(1,0,0,1,638.5,759.6) translate(165 91.83333333333334)"/><use xlink:href="#R" transform="matrix(1,0,0,1,638.5,759.6) translate(11.851851851851848 127.03333333333333)"/><use xlink:href="#S" transform="matrix(1,0,0,1,638.5,759.6) translate(99.18518518518519 127.03333333333333)"/><use xlink:href="#T" transform="matrix(1,0,0,1,638.5,759.6) translate(42.85185185185183 162.23333333333335)"/></g><path d="M498 845.8h61.75v.5h40.28" stroke="#494949" stroke-width="4" fill="none"/><path d="M498 847.8h-2v-4h2zM615.03 846.3l-14.27 4.64v-9.28z" fill="#494949"/><path d="M621.5 846.3l-22.74 7.4v-14.8zm-18.74 1.88l5.8-1.88-5.8-1.88z" fill="#494949"/><path d="M375.67 634v104.53" stroke="#494949" stroke-width="4" fill="none"/><path d="M377.67 634h-4v-2h4zM375.67 753.53l-4.64-14.27h9.27z" fill="#494949"/><path d="M375.67 760l-7.4-22.74h14.8zm-1.88-18.74l1.87 5.8 1.88-5.8zM216 1348h374.9v4H212v-206.55h4zm16.53-774H216v539.45h-4V570h20.53z" fill="#494949"/><path d="M593 1348.6l-.15 2.17.48 1.23h-2.44v-4h2.42zM247.53 572l-14.27 4.64v-9.28z" fill="#494949"/><path d="M254 572l-22.74 7.4v-14.8zm-18.74 1.88l5.8-1.88-5.8-1.88z" fill="#494949"/><use xlink:href="#U" transform="matrix(1,0,0,1,189.11111111111111,1113.4471745670276) translate(0.004999999999999005 21.333333333333336)"/><g filter="url(#o)"><path d="M1000 770c0-4.42 3.58-8 8-8h223.34c4.42 0 8 3.58 8 8v155.4c0 4.42-3.58 8-8 8H1008c-4.42 0-8-3.58-8-8z" stroke="#3d4752" stroke-width="4" fill="#fff"/><use xlink:href="#V" transform="matrix(1,0,0,1,1015,777) translate(18.518518518518505 76.33333333333334)"/><use xlink:href="#q" transform="matrix(1,0,0,1,1015,777) translate(90.96296296296296 76.33333333333334)"/></g><path d="M865.5 846h111.03" stroke="#494949" stroke-width="4" fill="none"/><path d="M865.5 848h-2v-4h2zM991.53 846l-14.27 4.64v-9.28z" fill="#494949"/><path d="M998 846l-22.74 7.4v-14.8zm-18.74 1.88l5.8-1.88-5.8-1.88z" fill="#494949"/><path d="M1119.67 935.4v61.13" stroke="#494949" stroke-width="4" fill="none"/><path d="M1121.67 935.4h-4v-2h4zM1119.67 1011.53l-4.64-14.27h9.27z" fill="#494949"/><path d="M1119.67 1018l-7.4-22.74h14.8zm-1.88-18.74l1.87 5.8 1.88-5.8z" fill="#494949"/><path d="M997.66 1105.7H740v113.7" stroke="#494949" stroke-width="4" fill="none"/><path d="M999.66 1107.7h-2v-4h2zM740 1234.4l-4.64-14.28h9.28z" fill="#494949"/><path d="M740 1240.86l-7.4-22.74h14.8zm-1.88-18.74l1.88 5.8 1.88-5.8z" fill="#494949"/><defs><path fill="#3d4752" d="M212-179c-10-28-35-45-73-45-59 0-87 40-87 99 0 60 29 101 89 101 43 0 62-24 78-52l27 14C228-24 195 4 139 4 59 4 22-46 18-125c-6-104 99-153 187-111 19 9 31 26 39 46" id="W"/><path fill="#3d4752" d="M9 0v-24l116-142H16v-24h144v24L44-24h123V0H9" id="X"/><path fill="#3d4752" d="M179-190L93 31C79 59 56 82 12 73V49c39 6 53-20 64-50L1-190h34L92-34l54-156h33" id="Y"/><g id="b"><use transform="matrix(0.06790123456790124,0,0,0.06790123456790124,0,0)" xlink:href="#W"/><use transform="matrix(0.06790123456790124,0,0,0.06790123456790124,17.58641975308642,0)" xlink:href="#X"/><use transform="matrix(0.06790123456790124,0,0,0.06790123456790124,29.808641975308646,0)" xlink:href="#Y"/></g><path fill="#3d4752" d="M24-231v-30h32v30H24zM24 0v-190h32V0H24" id="Z"/><path fill="#3d4752" d="M135-143c-3-34-86-38-87 0 15 53 115 12 119 90S17 21 10-45l28-5c4 36 97 45 98 0-10-56-113-15-118-90-4-57 82-63 122-42 12 7 21 19 24 35" id="aa"/><path fill="#3d4752" d="M59-47c-2 24 18 29 38 22v24C64 9 27 4 27-40v-127H5v-23h24l9-43h21v43h35v23H59v120" id="ab"/><path fill="#3d4752" d="M117-194c89-4 53 116 60 194h-32v-121c0-31-8-49-39-48C34-167 62-67 57 0H25l-1-190h30c1 10-1 24 2 32 11-22 29-35 61-36" id="ac"/><path fill="#3d4752" d="M100-194c63 0 86 42 84 106H49c0 40 14 67 53 68 26 1 43-12 49-29l28 8c-11 28-37 45-77 45C44 4 14-33 15-96c1-61 26-98 85-98zm52 81c6-60-76-77-97-28-3 7-6 17-6 28h103" id="ad"/><path fill="#3d4752" d="M24-231v-30h32v30H24zM-9 49c24 4 33-6 33-30v-209h32V24c2 40-23 58-65 49V49" id="ae"/><path fill="#3d4752" d="M141-36C126-15 110 5 73 4 37 3 15-17 15-53c-1-64 63-63 125-63 3-35-9-54-41-54-24 1-41 7-42 31l-33-3c5-37 33-52 76-52 45 0 72 20 72 64v82c-1 20 7 32 28 27v20c-31 9-61-2-59-35zM48-53c0 20 12 33 32 33 41-3 63-29 60-74-43 2-92-5-92 41zm116 93c-1 20 24 18 37 12v18c-24 11-66 4-62-28 3-27 17-46 51-42-13 8-25 19-26 40" id="af"/><g id="c"><use transform="matrix(0.06790123456790124,0,0,0.06790123456790124,0,0)" xlink:href="#Z"/><use transform="matrix(0.06790123456790124,0,0,0.06790123456790124,5.364197530864199,0)" xlink:href="#aa"/><use transform="matrix(0.06790123456790124,0,0,0.06790123456790124,17.58641975308642,0)" xlink:href="#ab"/><use transform="matrix(0.06790123456790124,0,0,0.06790123456790124,24.376543209876544,0)" xlink:href="#ac"/><use transform="matrix(0.06790123456790124,0,0,0.06790123456790124,37.95679012345679,0)" xlink:href="#Z"/><use transform="matrix(0.06790123456790124,0,0,0.06790123456790124,43.32098765432099,0)" xlink:href="#ad"/><use transform="matrix(0.06790123456790124,0,0,0.06790123456790124,56.901234567901234,0)" xlink:href="#ae"/><use transform="matrix(0.06790123456790124,0,0,0.06790123456790124,62.26543209876543,0)" xlink:href="#af"/></g><path fill="#3d4752" d="M115-194c55 1 70 41 70 98S169 2 115 4C84 4 66-9 55-30l1 105H24l-1-265h31l2 30c10-21 28-34 59-34zm-8 174c40 0 45-34 45-75s-6-73-45-74c-42 0-51 32-51 76 0 43 10 73 51 73" id="ag"/><g id="d"><use transform="matrix(0.06790123456790124,0,0,0.06790123456790124,0,0)" xlink:href="#ag"/><use transform="matrix(0.06790123456790124,0,0,0.06790123456790124,13.580246913580249,0)" xlink:href="#Z"/><use transform="matrix(0.06790123456790124,0,0,0.06790123456790124,18.944444444444446,0)" xlink:href="#ad"/><use transform="matrix(0.06790123456790124,0,0,0.06790123456790124,32.5246913580247,0)" xlink:href="#aa"/><use transform="matrix(0.06790123456790124,0,0,0.06790123456790124,44.74691358024692,0)" xlink:href="#Z"/></g><path fill="#3d4752" d="M141-36C126-15 110 5 73 4 37 3 15-17 15-53c-1-64 63-63 125-63 3-35-9-54-41-54-24 1-41 7-42 31l-33-3c5-37 33-52 76-52 45 0 72 20 72 64v82c-1 20 7 32 28 27v20c-31 9-61-2-59-35zM48-53c0 20 12 33 32 33 41-3 63-29 60-74-43 2-92-5-92 41" id="ah"/><g id="e"><use transform="matrix(0.06790123456790124,0,0,0.06790123456790124,0,0)" xlink:href="#ac"/><use transform="matrix(0.06790123456790124,0,0,0.06790123456790124,13.580246913580249,0)" xlink:href="#ah"/></g><path fill="#3d4752" d="M210-169c-67 3-38 105-44 169h-31v-121c0-29-5-50-35-48C34-165 62-65 56 0H25l-1-190h30c1 10-1 24 2 32 10-44 99-50 107 0 11-21 27-35 58-36 85-2 47 119 55 194h-31v-121c0-29-5-49-35-48" id="ai"/><path fill="#3d4752" d="M103-251c84 0 111 97 45 133-19 10-37 24-39 52H78c0-63 77-55 77-114 0-30-21-42-52-43-32 0-53 17-56 46l-32-2c7-45 34-72 88-72zM77 0v-35h34V0H77" id="aj"/><g id="f"><use transform="matrix(0.06790123456790124,0,0,0.06790123456790124,0,0)" xlink:href="#ai"/><use transform="matrix(0.06790123456790124,0,0,0.06790123456790124,20.302469135802472,0)" xlink:href="#ah"/><use transform="matrix(0.06790123456790124,0,0,0.06790123456790124,33.88271604938272,0)" xlink:href="#ag"/><use transform="matrix(0.06790123456790124,0,0,0.06790123456790124,47.46296296296297,0)" xlink:href="#Z"/><use transform="matrix(0.06790123456790124,0,0,0.06790123456790124,52.827160493827165,0)" xlink:href="#ad"/><use transform="matrix(0.06790123456790124,0,0,0.06790123456790124,66.40740740740742,0)" xlink:href="#aj"/></g><filter id="a" filterUnits="objectBoundingBox" x="-.03" y="-.02" width="1.07" height="1.09"><feOffset result="offOut" in="SourceAlpha" dy="6"/><feGaussianBlur result="blurOut" in="offOut" stdDeviation="5"/><feColorMatrix result="colorOut" in="blurOut" values="0 0 0 0 0 0 0 0 0 0 0 0 0 0 0 0 0 0 0.16862745098039217 0"/><feBlend in="SourceGraphic" in2="colorOut"/></filter><path fill="#3d4752" d="M140-251c81 0 123 46 123 126C263-46 219 4 140 4 59 4 17-45 17-125s42-126 123-126zm0 227c63 0 89-41 89-101s-29-99-89-99c-61 0-89 39-89 99S79-25 140-24" id="ak"/><path fill="#3d4752" d="M115-194c53 0 69 39 70 98 0 66-23 100-70 100C84 3 66-7 56-30L54 0H23l1-261h32v101c10-23 28-34 59-34zm-8 174c40 0 45-34 45-75 0-40-5-75-45-74-42 0-51 32-51 76 0 43 10 73 51 73" id="al"/><path fill="#3d4752" d="M24 0v-261h32V0H24" id="am"/><path fill="#3d4752" d="M96-169c-40 0-48 33-48 73s9 75 48 75c24 0 41-14 43-38l32 2c-6 37-31 61-74 61-59 0-76-41-82-99-10-93 101-131 147-64 4 7 5 14 7 22l-32 3c-4-21-16-35-41-35" id="an"/><g id="h"><use transform="matrix(0.07407407407407408,0,0,0.07407407407407408,0,0)" xlink:href="#ak"/><use transform="matrix(0.07407407407407408,0,0,0.07407407407407408,20.740740740740744,0)" xlink:href="#al"/><use transform="matrix(0.07407407407407408,0,0,0.07407407407407408,35.55555555555556,0)" xlink:href="#am"/><use transform="matrix(0.07407407407407408,0,0,0.07407407407407408,41.40740740740741,0)" xlink:href="#Z"/><use transform="matrix(0.07407407407407408,0,0,0.07407407407407408,47.25925925925927,0)" xlink:href="#an"/><use transform="matrix(0.07407407407407408,0,0,0.07407407407407408,60.5925925925926,0)" xlink:href="#X"/><use transform="matrix(0.07407407407407408,0,0,0.07407407407407408,73.92592592592594,0)" xlink:href="#ad"/><use transform="matrix(0.07407407407407408,0,0,0.07407407407407408,88.74074074074078,0)" xlink:href="#ac"/><use transform="matrix(0.07407407407407408,0,0,0.07407407407407408,103.55555555555557,0)" xlink:href="#Z"/><use transform="matrix(0.07407407407407408,0,0,0.07407407407407408,109.40740740740742,0)" xlink:href="#ad"/></g><path fill="#3d4752" d="M100-194c62-1 85 37 85 99 1 63-27 99-86 99S16-35 15-95c0-66 28-99 85-99zM99-20c44 1 53-31 53-75 0-43-8-75-51-75s-53 32-53 75 10 74 51 75" id="ao"/><path fill="#3d4752" d="M206 0h-36l-40-164L89 0H53L-1-190h32L70-26l43-164h34l41 164 42-164h31" id="ap"/><path fill="#3d4752" d="M106-169C34-169 62-67 57 0H25v-261h32l-1 103c12-21 28-36 61-36 89 0 53 116 60 194h-32v-121c2-32-8-49-39-48" id="aq"/><g id="i"><use transform="matrix(0.07407407407407408,0,0,0.07407407407407408,0,0)" xlink:href="#ac"/><use transform="matrix(0.07407407407407408,0,0,0.07407407407407408,14.814814814814817,0)" xlink:href="#ao"/><use transform="matrix(0.07407407407407408,0,0,0.07407407407407408,29.629629629629633,0)" xlink:href="#ap"/><use transform="matrix(0.07407407407407408,0,0,0.07407407407407408,48.814814814814824,0)" xlink:href="#Y"/><use transform="matrix(0.07407407407407408,0,0,0.07407407407407408,62.14814814814816,0)" xlink:href="#an"/><use transform="matrix(0.07407407407407408,0,0,0.07407407407407408,75.4814814814815,0)" xlink:href="#aq"/></g><path fill="#3d4752" d="M114-163C36-179 61-72 57 0H25l-1-190h30c1 12-1 29 2 39 6-27 23-49 58-41v29" id="ar"/><path fill="#3d4752" d="M100-194c63 0 86 42 84 106H49c0 40 14 67 53 68 26 1 43-12 49-29l28 8c-11 28-37 45-77 45C44 4 14-33 15-96c1-61 26-98 85-98zm52 81c6-60-76-77-97-28-3 7-6 17-6 28h103zM106 40c-1 20 24 18 37 12v18c-24 11-66 4-62-28 3-27 17-46 51-42-13 8-25 19-26 40" id="as"/><path fill="#3d4752" d="M85-194c31 0 48 13 60 33l-1-100h32l1 261h-30c-2-10 0-23-3-31C134-8 116 4 85 4 32 4 16-35 15-94c0-66 23-100 70-100zm9 24c-40 0-46 34-46 75 0 40 6 74 45 74 42 0 51-32 51-76 0-42-9-74-50-73" id="at"/><path fill="#3d4752" d="M143 0L79-87 56-68V0H24v-261h32v163l83-92h37l-77 82L181 0h-38" id="au"/><path fill="#3d4752" d="M135-143c-3-34-86-38-87 0 15 53 115 12 119 90S17 21 10-45l28-5c4 36 97 45 98 0-10-56-113-15-118-90-4-57 82-63 122-42 12 7 21 19 24 35zm-67-68c8-23 27-35 38-54h36v5l-58 49H68" id="av"/><g id="j"><use transform="matrix(0.07407407407407408,0,0,0.07407407407407408,0,0)" xlink:href="#ag"/><use transform="matrix(0.07407407407407408,0,0,0.07407407407407408,14.814814814814817,0)" xlink:href="#ar"/><use transform="matrix(0.07407407407407408,0,0,0.07407407407407408,23.629629629629633,0)" xlink:href="#as"/><use transform="matrix(0.07407407407407408,0,0,0.07407407407407408,38.44444444444445,0)" xlink:href="#at"/><use transform="matrix(0.07407407407407408,0,0,0.07407407407407408,53.25925925925927,0)" xlink:href="#au"/><use transform="matrix(0.07407407407407408,0,0,0.07407407407407408,66.59259259259261,0)" xlink:href="#ao"/><use transform="matrix(0.07407407407407408,0,0,0.07407407407407408,81.40740740740742,0)" xlink:href="#av"/><use transform="matrix(0.07407407407407408,0,0,0.07407407407407408,94.74074074074078,0)" xlink:href="#an"/><use transform="matrix(0.07407407407407408,0,0,0.07407407407407408,108.0740740740741,0)" xlink:href="#Z"/></g><path fill="#3d4752" d="M84 4C-5 8 30-112 23-190h32v120c0 31 7 50 39 49 72-2 45-101 50-169h31l1 190h-30c-1-10 1-25-2-33-11 22-28 36-60 37" id="aw"/><g id="k"><use transform="matrix(0.07407407407407408,0,0,0.07407407407407408,0,0)" xlink:href="#ar"/><use transform="matrix(0.07407407407407408,0,0,0.07407407407407408,8.814814814814817,0)" xlink:href="#aw"/><use transform="matrix(0.07407407407407408,0,0,0.07407407407407408,23.629629629629633,0)" xlink:href="#an"/><use transform="matrix(0.07407407407407408,0,0,0.07407407407407408,36.96296296296297,0)" xlink:href="#aq"/><use transform="matrix(0.07407407407407408,0,0,0.07407407407407408,51.777777777777786,0)" xlink:href="#aw"/></g><g id="l"><use transform="matrix(0.07407407407407408,0,0,0.07407407407407408,0,0)" xlink:href="#ag"/><use transform="matrix(0.07407407407407408,0,0,0.07407407407407408,14.814814814814817,0)" xlink:href="#Z"/><use transform="matrix(0.07407407407407408,0,0,0.07407407407407408,20.666666666666668,0)" xlink:href="#ad"/><use transform="matrix(0.07407407407407408,0,0,0.07407407407407408,35.48148148148149,0)" xlink:href="#aa"/><use transform="matrix(0.07407407407407408,0,0,0.07407407407407408,48.814814814814824,0)" xlink:href="#X"/><use transform="matrix(0.07407407407407408,0,0,0.07407407407407408,62.14814814814816,0)" xlink:href="#Y"/><use transform="matrix(0.07407407407407408,0,0,0.07407407407407408,75.4814814814815,0)" xlink:href="#an"/><use transform="matrix(0.07407407407407408,0,0,0.07407407407407408,88.81481481481484,0)" xlink:href="#aq"/></g><filter id="g" filterUnits="objectBoundingBox" x="-.04" y="-.02" width="1.08" height="1.12"><feOffset result="offOut" in="SourceAlpha" dy="6"/><feGaussianBlur result="blurOut" in="offOut" stdDeviation="5"/><feColorMatrix result="colorOut" in="blurOut" values="0 0 0 0 0 0 0 0 0 0 0 0 0 0 0 0 0 0 0.16862745098039217 0"/><feBlend in="SourceGraphic" in2="colorOut"/></filter><path fill="#3d4752" d="M185-189c-5-48-123-54-124 2 14 75 158 14 163 119 3 78-121 87-175 55-17-10-28-26-33-46l33-7c5 56 141 63 141-1 0-78-155-14-162-118-5-82 145-84 179-34 5 7 8 16 11 25" id="ax"/><g id="n"><use transform="matrix(0.07407407407407408,0,0,0.07407407407407408,0,0)" xlink:href="#ax"/><use transform="matrix(0.07407407407407408,0,0,0.07407407407407408,17.77777777777778,0)" xlink:href="#ab"/><use transform="matrix(0.07407407407407408,0,0,0.07407407407407408,25.185185185185187,0)" xlink:href="#ah"/><use transform="matrix(0.07407407407407408,0,0,0.07407407407407408,40,0)" xlink:href="#ar"/><use transform="matrix(0.07407407407407408,0,0,0.07407407407407408,48.81481481481481,0)" xlink:href="#ab"/></g><filter id="m" filterUnits="objectBoundingBox" x="-.06" y="-.05" width="1.11" height="1.25"><feOffset result="offOut" in="SourceAlpha" dy="6"/><feGaussianBlur result="blurOut" in="offOut" stdDeviation="5"/><feColorMatrix result="colorOut" in="blurOut" values="0 0 0 0 0 0 0 0 0 0 0 0 0 0 0 0 0 0 0.16862745098039217 0"/><feBlend in="SourceGraphic" in2="colorOut"/></filter><path fill="#3d4752" d="M266 0h-40l-56-210L115 0H75L2-248h35L96-30l15-64 43-154h32l59 218 59-218h35" id="ay"/><g id="p"><use transform="matrix(0.07407407407407408,0,0,0.07407407407407408,0,0)" xlink:href="#ay"/><use transform="matrix(0.07407407407407408,0,0,0.07407407407407408,25.111111111111114,0)" xlink:href="#Z"/><use transform="matrix(0.07407407407407408,0,0,0.07407407407407408,30.962962962962965,0)" xlink:href="#X"/><use transform="matrix(0.07407407407407408,0,0,0.07407407407407408,44.296296296296305,0)" xlink:href="#aw"/><use transform="matrix(0.07407407407407408,0,0,0.07407407407407408,59.11111111111112,0)" xlink:href="#ah"/><use transform="matrix(0.07407407407407408,0,0,0.07407407407407408,73.92592592592594,0)" xlink:href="#am"/><use transform="matrix(0.07407407407407408,0,0,0.07407407407407408,79.77777777777779,0)" xlink:href="#Z"/><use transform="matrix(0.07407407407407408,0,0,0.07407407407407408,85.62962962962965,0)" xlink:href="#X"/><use transform="matrix(0.07407407407407408,0,0,0.07407407407407408,98.96296296296296,0)" xlink:href="#ah"/><use transform="matrix(0.07407407407407408,0,0,0.07407407407407408,113.77777777777777,0)" xlink:href="#an"/><use transform="matrix(0.07407407407407408,0,0,0.07407407407407408,127.11111111111111,0)" xlink:href="#ae"/><use transform="matrix(0.07407407407407408,0,0,0.07407407407407408,132.96296296296296,0)" xlink:href="#ah"/></g><path fill="#3d4752" d="M100-194c62-1 85 37 85 99 1 63-27 99-86 99S16-35 15-95c0-66 28-99 85-99zM99-20c44 1 53-31 53-75 0-43-8-75-51-75s-53 32-53 75 10 74 51 75zM76-211c8-23 27-35 38-54h36v5l-58 49H76" id="az"/><g id="q"><use transform="matrix(0.07407407407407408,0,0,0.07407407407407408,0,0)" xlink:href="#ap"/><use transform="matrix(0.07407407407407408,0,0,0.07407407407407408,19.185185185185187,0)" xlink:href="#Y"/><use transform="matrix(0.07407407407407408,0,0,0.07407407407407408,32.51851851851852,0)" xlink:href="#ac"/><use transform="matrix(0.07407407407407408,0,0,0.07407407407407408,47.33333333333334,0)" xlink:href="#Z"/><use transform="matrix(0.07407407407407408,0,0,0.07407407407407408,53.18518518518519,0)" xlink:href="#au"/><use transform="matrix(0.07407407407407408,0,0,0.07407407407407408,66.51851851851853,0)" xlink:href="#az"/><use transform="matrix(0.07407407407407408,0,0,0.07407407407407408,81.33333333333334,0)" xlink:href="#ap"/></g><filter id="o" filterUnits="objectBoundingBox" x="-.04" y="-.02" width="1.08" height="1.12"><feOffset result="offOut" in="SourceAlpha" dy="6"/><feGaussianBlur result="blurOut" in="offOut" stdDeviation="5"/><feColorMatrix result="colorOut" in="blurOut" values="0 0 0 0 0 0 0 0 0 0 0 0 0 0 0 0 0 0 0.16862745098039217 0"/><feBlend in="SourceGraphic" in2="colorOut"/></filter><path fill="#3d4752" d="M33 0v-248h34V0H33" id="aA"/><g id="s"><use transform="matrix(0.07407407407407408,0,0,0.07407407407407408,0,0)" xlink:href="#aA"/><use transform="matrix(0.07407407407407408,0,0,0.07407407407407408,7.407407407407408,0)" xlink:href="#ac"/><use transform="matrix(0.07407407407407408,0,0,0.07407407407407408,22.222222222222225,0)" xlink:href="#Z"/><use transform="matrix(0.07407407407407408,0,0,0.07407407407407408,28.074074074074076,0)" xlink:href="#an"/><use transform="matrix(0.07407407407407408,0,0,0.07407407407407408,41.40740740740741,0)" xlink:href="#ae"/><use transform="matrix(0.07407407407407408,0,0,0.07407407407407408,47.25925925925927,0)" xlink:href="#ah"/><use transform="matrix(0.07407407407407408,0,0,0.07407407407407408,62.07407407407408,0)" xlink:href="#am"/><use transform="matrix(0.07407407407407408,0,0,0.07407407407407408,67.92592592592594,0)" xlink:href="#Z"/><use transform="matrix(0.07407407407407408,0,0,0.07407407407407408,73.77777777777779,0)" xlink:href="#X"/><use transform="matrix(0.07407407407407408,0,0,0.07407407407407408,87.11111111111113,0)" xlink:href="#ah"/><use transform="matrix(0.07407407407407408,0,0,0.07407407407407408,101.92592592592592,0)" xlink:href="#an"/><use transform="matrix(0.07407407407407408,0,0,0.07407407407407408,115.25925925925928,0)" xlink:href="#ae"/><use transform="matrix(0.07407407407407408,0,0,0.07407407407407408,121.11111111111111,0)" xlink:href="#ah"/></g><g id="t"><use transform="matrix(0.07407407407407408,0,0,0.07407407407407408,0,0)" xlink:href="#ai"/><use transform="matrix(0.07407407407407408,0,0,0.07407407407407408,22.148148148148152,0)" xlink:href="#ah"/><use transform="matrix(0.07407407407407408,0,0,0.07407407407407408,36.96296296296297,0)" xlink:href="#ag"/><use transform="matrix(0.07407407407407408,0,0,0.07407407407407408,51.777777777777786,0)" xlink:href="#Y"/></g><filter id="r" filterUnits="objectBoundingBox" x="-.04" y="-.03" width="1.08" height="1.17"><feOffset result="offOut" in="SourceAlpha" dy="6"/><feGaussianBlur result="blurOut" in="offOut" stdDeviation="5"/><feColorMatrix result="colorOut" in="blurOut" values="0 0 0 0 0 0 0 0 0 0 0 0 0 0 0 0 0 0 0.16862745098039217 0"/><feBlend in="SourceGraphic" in2="colorOut"/></filter><path fill="#3d4752" d="M30 0v-248h187v28H63v79h144v27H63v87h162V0H30" id="aB"/><g id="u"><use transform="matrix(0.07407407407407408,0,0,0.07407407407407408,0,0)" xlink:href="#aB"/><use transform="matrix(0.07407407407407408,0,0,0.07407407407407408,17.77777777777778,0)" xlink:href="#ac"/><use transform="matrix(0.07407407407407408,0,0,0.07407407407407408,32.592592592592595,0)" xlink:href="#at"/></g><path d="M175 0L67-191c6 58 2 128 3 191H24v-248h59L193-55c-6-58-2-129-3-193h46V0h-61" id="aC"/><path d="M24 0v-248h52V0H24" id="aD"/><path d="M24 0v-248h195v40H76v63h132v40H76v65h150V0H24" id="aE"/><g id="v"><use transform="matrix(0.061728395061728406,0,0,0.061728395061728406,0,0)" xlink:href="#aC"/><use transform="matrix(0.061728395061728406,0,0,0.061728395061728406,15.987654320987657,0)" xlink:href="#aD"/><use transform="matrix(0.061728395061728406,0,0,0.061728395061728406,22.160493827160497,0)" xlink:href="#aE"/></g><path fill="#3d4752" d="M232-93c-1 65-40 97-104 97C67 4 28-28 28-90v-158h33c8 89-33 224 67 224 102 0 64-133 71-224h33v155" id="aF"/><g id="w"><use transform="matrix(0.07407407407407408,0,0,0.07407407407407408,0,0)" xlink:href="#aF"/><use transform="matrix(0.07407407407407408,0,0,0.07407407407407408,19.185185185185187,0)" xlink:href="#ai"/><use transform="matrix(0.07407407407407408,0,0,0.07407407407407408,41.333333333333336,0)" xlink:href="#Z"/><use transform="matrix(0.07407407407407408,0,0,0.07407407407407408,47.1851851851852,0)" xlink:href="#ad"/><use transform="matrix(0.07407407407407408,0,0,0.07407407407407408,62.000000000000014,0)" xlink:href="#aa"/><use transform="matrix(0.07407407407407408,0,0,0.07407407407407408,75.33333333333334,0)" xlink:href="#X"/><use transform="matrix(0.07407407407407408,0,0,0.07407407407407408,88.66666666666667,0)" xlink:href="#an"/><use transform="matrix(0.07407407407407408,0,0,0.07407407407407408,102.00000000000003,0)" xlink:href="#X"/><use transform="matrix(0.07407407407407408,0,0,0.07407407407407408,115.33333333333337,0)" xlink:href="#ad"/><use transform="matrix(0.07407407407407408,0,0,0.07407407407407408,130.14814814814818,0)" xlink:href="#ac"/><use transform="matrix(0.07407407407407408,0,0,0.07407407407407408,144.962962962963,0)" xlink:href="#Z"/><use transform="matrix(0.07407407407407408,0,0,0.07407407407407408,150.81481481481484,0)" xlink:href="#ad"/></g><g id="x"><use transform="matrix(0.07407407407407408,0,0,0.07407407407407408,0,0)" xlink:href="#ap"/><use transform="matrix(0.07407407407407408,0,0,0.07407407407407408,19.185185185185187,0)" xlink:href="#Y"/><use transform="matrix(0.07407407407407408,0,0,0.07407407407407408,32.51851851851852,0)" xlink:href="#ae"/><use transform="matrix(0.07407407407407408,0,0,0.07407407407407408,38.370370370370374,0)" xlink:href="#av"/><use transform="matrix(0.07407407407407408,0,0,0.07407407407407408,51.70370370370371,0)" xlink:href="#an"/></g><g id="A"><use transform="matrix(0.07407407407407408,0,0,0.07407407407407408,0,0)" xlink:href="#aA"/><use transform="matrix(0.07407407407407408,0,0,0.07407407407407408,7.407407407407408,0)" xlink:href="#ac"/><use transform="matrix(0.07407407407407408,0,0,0.07407407407407408,22.222222222222225,0)" xlink:href="#Z"/><use transform="matrix(0.07407407407407408,0,0,0.07407407407407408,28.074074074074076,0)" xlink:href="#an"/><use transform="matrix(0.07407407407407408,0,0,0.07407407407407408,41.40740740740741,0)" xlink:href="#ae"/><use transform="matrix(0.07407407407407408,0,0,0.07407407407407408,47.25925925925927,0)" xlink:href="#ah"/><use transform="matrix(0.07407407407407408,0,0,0.07407407407407408,62.07407407407408,0)" xlink:href="#am"/><use transform="matrix(0.07407407407407408,0,0,0.07407407407407408,67.92592592592594,0)" xlink:href="#Z"/><use transform="matrix(0.07407407407407408,0,0,0.07407407407407408,73.77777777777779,0)" xlink:href="#X"/><use transform="matrix(0.07407407407407408,0,0,0.07407407407407408,87.11111111111113,0)" xlink:href="#ah"/><use transform="matrix(0.07407407407407408,0,0,0.07407407407407408,101.92592592592592,0)" xlink:href="#an"/><use transform="matrix(0.07407407407407408,0,0,0.07407407407407408,115.25925925925928,0)" xlink:href="#ae"/><use transform="matrix(0.07407407407407408,0,0,0.07407407407407408,121.11111111111111,0)" xlink:href="#ah"/></g><g id="B"><use transform="matrix(0.07407407407407408,0,0,0.07407407407407408,0,0)" xlink:href="#ag"/><use transform="matrix(0.07407407407407408,0,0,0.07407407407407408,14.814814814814817,0)" xlink:href="#Z"/><use transform="matrix(0.07407407407407408,0,0,0.07407407407407408,20.666666666666668,0)" xlink:href="#ad"/><use transform="matrix(0.07407407407407408,0,0,0.07407407407407408,35.48148148148149,0)" xlink:href="#aa"/><use transform="matrix(0.07407407407407408,0,0,0.07407407407407408,48.814814814814824,0)" xlink:href="#X"/><use transform="matrix(0.07407407407407408,0,0,0.07407407407407408,62.14814814814816,0)" xlink:href="#Y"/><use transform="matrix(0.07407407407407408,0,0,0.07407407407407408,75.4814814814815,0)" xlink:href="#an"/><use transform="matrix(0.07407407407407408,0,0,0.07407407407407408,88.81481481481484,0)" xlink:href="#aq"/></g><path fill="#3d4752" d="M87 75C49 33 22-17 22-94c0-76 28-126 65-167h31c-38 41-64 92-64 168S80 34 118 75H87" id="aG"/><g id="C"><use transform="matrix(0.07407407407407408,0,0,0.07407407407407408,0,0)" xlink:href="#aG"/><use transform="matrix(0.07407407407407408,0,0,0.07407407407407408,8.814814814814817,0)" xlink:href="#am"/><use transform="matrix(0.07407407407407408,0,0,0.07407407407407408,14.666666666666668,0)" xlink:href="#ao"/><use transform="matrix(0.07407407407407408,0,0,0.07407407407407408,29.481481481481488,0)" xlink:href="#aa"/><use transform="matrix(0.07407407407407408,0,0,0.07407407407407408,42.814814814814824,0)" xlink:href="#ao"/><use transform="matrix(0.07407407407407408,0,0,0.07407407407407408,57.62962962962964,0)" xlink:href="#ap"/><use transform="matrix(0.07407407407407408,0,0,0.07407407407407408,76.81481481481482,0)" xlink:href="#ao"/></g><g id="D"><use transform="matrix(0.07407407407407408,0,0,0.07407407407407408,0,0)" xlink:href="#am"/><use transform="matrix(0.07407407407407408,0,0,0.07407407407407408,5.851851851851853,0)" xlink:href="#aw"/><use transform="matrix(0.07407407407407408,0,0,0.07407407407407408,20.666666666666668,0)" xlink:href="#al"/></g><path fill="#3d4752" d="M33-261c38 41 65 92 65 168S71 34 33 75H2C39 34 66-17 66-93S39-220 2-261h31" id="aH"/><g id="E"><use transform="matrix(0.07407407407407408,0,0,0.07407407407407408,0,0)" xlink:href="#ac"/><use transform="matrix(0.07407407407407408,0,0,0.07407407407407408,14.814814814814817,0)" xlink:href="#Z"/><use transform="matrix(0.07407407407407408,0,0,0.07407407407407408,20.666666666666668,0)" xlink:href="#ad"/><use transform="matrix(0.07407407407407408,0,0,0.07407407407407408,35.48148148148149,0)" xlink:href="#aH"/></g><filter id="y" filterUnits="objectBoundingBox" x="-.04" y="-.03" width="1.08" height="1.15"><feOffset result="offOut" in="SourceAlpha" dy="6"/><feGaussianBlur result="blurOut" in="offOut" stdDeviation="5"/><feColorMatrix result="colorOut" in="blurOut" values="0 0 0 0 0 0 0 0 0 0 0 0 0 0 0 0 0 0 0.16862745098039217 0"/><feBlend in="SourceGraphic" in2="colorOut"/></filter><path fill="#3d4752" d="M9 0v-24l116-142H16v-24h144v24L44-24h123V0H9zm62-217v-31h32v31H71" id="aI"/><g id="G"><use transform="matrix(0.07407407407407408,0,0,0.07407407407407408,0,0)" xlink:href="#av"/><use transform="matrix(0.07407407407407408,0,0,0.07407407407407408,13.333333333333336,0)" xlink:href="#an"/><use transform="matrix(0.07407407407407408,0,0,0.07407407407407408,26.66666666666667,0)" xlink:href="#Z"/><use transform="matrix(0.07407407407407408,0,0,0.07407407407407408,32.518518518518526,0)" xlink:href="#ad"/><use transform="matrix(0.07407407407407408,0,0,0.07407407407407408,47.33333333333334,0)" xlink:href="#aI"/><use transform="matrix(0.07407407407407408,0,0,0.07407407407407408,60.66666666666667,0)" xlink:href="#ad"/><use transform="matrix(0.07407407407407408,0,0,0.07407407407407408,75.4814814814815,0)" xlink:href="#au"/></g><g id="H"><use transform="matrix(0.07407407407407408,0,0,0.07407407407407408,0,0)" xlink:href="#ar"/><use transform="matrix(0.07407407407407408,0,0,0.07407407407407408,8.814814814814817,0)" xlink:href="#aw"/><use transform="matrix(0.07407407407407408,0,0,0.07407407407407408,23.629629629629633,0)" xlink:href="#an"/><use transform="matrix(0.07407407407407408,0,0,0.07407407407407408,36.96296296296297,0)" xlink:href="#aq"/><use transform="matrix(0.07407407407407408,0,0,0.07407407407407408,51.777777777777786,0)" xlink:href="#aw"/></g><filter id="F" filterUnits="objectBoundingBox" x="-.04" y="-.03" width="1.08" height="1.17"><feOffset result="offOut" in="SourceAlpha" dy="6"/><feGaussianBlur result="blurOut" in="offOut" stdDeviation="5"/><feColorMatrix result="colorOut" in="blurOut" values="0 0 0 0 0 0 0 0 0 0 0 0 0 0 0 0 0 0 0.16862745098039217 0"/><feBlend in="SourceGraphic" in2="colorOut"/></filter><g id="I"><use transform="matrix(0.07407407407407408,0,0,0.07407407407407408,0,0)" xlink:href="#ak"/><use transform="matrix(0.07407407407407408,0,0,0.07407407407407408,20.740740740740744,0)" xlink:href="#al"/><use transform="matrix(0.07407407407407408,0,0,0.07407407407407408,35.55555555555556,0)" xlink:href="#am"/><use transform="matrix(0.07407407407407408,0,0,0.07407407407407408,41.40740740740741,0)" xlink:href="#Z"/><use transform="matrix(0.07407407407407408,0,0,0.07407407407407408,47.25925925925927,0)" xlink:href="#an"/><use transform="matrix(0.07407407407407408,0,0,0.07407407407407408,60.5925925925926,0)" xlink:href="#X"/><use transform="matrix(0.07407407407407408,0,0,0.07407407407407408,73.92592592592594,0)" xlink:href="#ad"/><use transform="matrix(0.07407407407407408,0,0,0.07407407407407408,88.74074074074078,0)" xlink:href="#ac"/><use transform="matrix(0.07407407407407408,0,0,0.07407407407407408,103.55555555555557,0)" xlink:href="#Z"/><use transform="matrix(0.07407407407407408,0,0,0.07407407407407408,109.40740740740742,0)" xlink:href="#ad"/></g><path fill="#3d4752" d="M24 0v-95L3-83v-28l21-12v-138h32v120l22-13v28l-22 12V0H24" id="aJ"/><g id="J"><use transform="matrix(0.07407407407407408,0,0,0.07407407407407408,0,0)" xlink:href="#aa"/><use transform="matrix(0.07407407407407408,0,0,0.07407407407407408,13.333333333333336,0)" xlink:href="#Z"/><use transform="matrix(0.07407407407407408,0,0,0.07407407407407408,19.18518518518519,0)" xlink:href="#aJ"/></g><use transform="matrix(0.07407407407407408,0,0,0.07407407407407408,0,0)" xlink:href="#X" id="K"/><g id="L"><use transform="matrix(0.07407407407407408,0,0,0.07407407407407408,0,0)" xlink:href="#aw"/><use transform="matrix(0.07407407407407408,0,0,0.07407407407407408,14.814814814814817,0)" xlink:href="#aI"/><use transform="matrix(0.07407407407407408,0,0,0.07407407407407408,28.148148148148152,0)" xlink:href="#Y"/><use transform="matrix(0.07407407407407408,0,0,0.07407407407407408,41.48148148148149,0)" xlink:href="#an"/><use transform="matrix(0.07407407407407408,0,0,0.07407407407407408,54.814814814814824,0)" xlink:href="#Z"/><use transform="matrix(0.07407407407407408,0,0,0.07407407407407408,60.66666666666667,0)" xlink:href="#ad"/><use transform="matrix(0.07407407407407408,0,0,0.07407407407407408,75.4814814814815,0)" xlink:href="#ai"/></g><path fill="#3d4752" d="M63-220v92h138v28H63V0H30v-248h175v28H63" id="aK"/><path fill="#3d4752" d="M240 0l2-218c-23 76-54 145-80 218h-23L58-218 59 0H30v-248h44l77 211c21-75 51-140 76-211h43V0h-30" id="aL"/><g id="M"><use transform="matrix(0.07407407407407408,0,0,0.07407407407407408,0,0)" xlink:href="#ax"/><use transform="matrix(0.07407407407407408,0,0,0.07407407407407408,17.77777777777778,0)" xlink:href="#aK"/><use transform="matrix(0.07407407407407408,0,0,0.07407407407407408,34,0)" xlink:href="#aL"/></g><g id="O"><use transform="matrix(0.07407407407407408,0,0,0.07407407407407408,0,0)" xlink:href="#at"/><use transform="matrix(0.07407407407407408,0,0,0.07407407407407408,14.814814814814817,0)" xlink:href="#Y"/><use transform="matrix(0.07407407407407408,0,0,0.07407407407407408,28.148148148148152,0)" xlink:href="#aa"/><use transform="matrix(0.07407407407407408,0,0,0.07407407407407408,41.48148148148149,0)" xlink:href="#ab"/><use transform="matrix(0.07407407407407408,0,0,0.07407407407407408,48.88888888888891,0)" xlink:href="#ah"/><use transform="matrix(0.07407407407407408,0,0,0.07407407407407408,63.703703703703724,0)" xlink:href="#ac"/><use transform="matrix(0.07407407407407408,0,0,0.07407407407407408,78.51851851851853,0)" xlink:href="#aa"/><use transform="matrix(0.07407407407407408,0,0,0.07407407407407408,91.85185185185188,0)" xlink:href="#aw"/></g><path fill="#3d4752" d="M177-190C167-65 218 103 67 71c-23-6-38-20-44-43l32-5c15 47 100 32 89-28v-30C133-14 115 1 83 1 29 1 15-40 15-95c0-56 16-97 71-98 29-1 48 16 59 35 1-10 0-23 2-32h30zM94-22c36 0 50-32 50-73 0-42-14-75-50-75-39 0-46 34-46 75s6 73 46 73" id="aM"/><g id="P"><use transform="matrix(0.07407407407407408,0,0,0.07407407407407408,0,0)" xlink:href="#ag"/><use transform="matrix(0.07407407407407408,0,0,0.07407407407407408,14.814814814814817,0)" xlink:href="#ar"/><use transform="matrix(0.07407407407407408,0,0,0.07407407407407408,23.629629629629633,0)" xlink:href="#X"/><use transform="matrix(0.07407407407407408,0,0,0.07407407407407408,36.96296296296297,0)" xlink:href="#ad"/><use transform="matrix(0.07407407407407408,0,0,0.07407407407407408,51.777777777777786,0)" xlink:href="#al"/><use transform="matrix(0.07407407407407408,0,0,0.07407407407407408,66.59259259259261,0)" xlink:href="#Y"/><use transform="matrix(0.07407407407407408,0,0,0.07407407407407408,79.92592592592595,0)" xlink:href="#ab"/><use transform="matrix(0.07407407407407408,0,0,0.07407407407407408,87.33333333333336,0)" xlink:href="#ad"/><use transform="matrix(0.07407407407407408,0,0,0.07407407407407408,102.14814814814818,0)" xlink:href="#aM"/><use transform="matrix(0.07407407407407408,0,0,0.07407407407407408,116.96296296296299,0)" xlink:href="#ao"/></g><use transform="matrix(0.07407407407407408,0,0,0.07407407407407408,0,0)" xlink:href="#ap" id="Q"/><g id="R"><use transform="matrix(0.07407407407407408,0,0,0.07407407407407408,0,0)" xlink:href="#at"/><use transform="matrix(0.07407407407407408,0,0,0.07407407407407408,14.814814814814817,0)" xlink:href="#ah"/><use transform="matrix(0.07407407407407408,0,0,0.07407407407407408,29.629629629629633,0)" xlink:href="#ac"/><use transform="matrix(0.07407407407407408,0,0,0.07407407407407408,44.44444444444445,0)" xlink:href="#Y"/><use transform="matrix(0.07407407407407408,0,0,0.07407407407407408,57.777777777777786,0)" xlink:href="#ai"/></g><g id="S"><use transform="matrix(0.07407407407407408,0,0,0.07407407407407408,0,0)" xlink:href="#Z"/><use transform="matrix(0.07407407407407408,0,0,0.07407407407407408,5.851851851851853,0)" xlink:href="#ac"/><use transform="matrix(0.07407407407407408,0,0,0.07407407407407408,20.666666666666668,0)" xlink:href="#ad"/><use transform="matrix(0.07407407407407408,0,0,0.07407407407407408,35.48148148148149,0)" xlink:href="#ar"/><use transform="matrix(0.07407407407407408,0,0,0.07407407407407408,44.296296296296305,0)" xlink:href="#ap"/><use transform="matrix(0.07407407407407408,0,0,0.07407407407407408,63.481481481481495,0)" xlink:href="#ah"/><use transform="matrix(0.07407407407407408,0,0,0.07407407407407408,78.2962962962963,0)" xlink:href="#am"/><use transform="matrix(0.07407407407407408,0,0,0.07407407407407408,84.14814814814815,0)" xlink:href="#ad"/></g><g id="T"><use transform="matrix(0.07407407407407408,0,0,0.07407407407407408,0,0)" xlink:href="#an"/><use transform="matrix(0.07407407407407408,0,0,0.07407407407407408,13.333333333333336,0)" xlink:href="#X"/><use transform="matrix(0.07407407407407408,0,0,0.07407407407407408,26.66666666666667,0)" xlink:href="#ah"/><use transform="matrix(0.07407407407407408,0,0,0.07407407407407408,41.48148148148149,0)" xlink:href="#aa"/><use transform="matrix(0.07407407407407408,0,0,0.07407407407407408,54.814814814814824,0)" xlink:href="#ao"/><use transform="matrix(0.07407407407407408,0,0,0.07407407407407408,69.62962962962965,0)" xlink:href="#ap"/><use transform="matrix(0.07407407407407408,0,0,0.07407407407407408,88.81481481481484,0)" xlink:href="#Y"/><use transform="matrix(0.07407407407407408,0,0,0.07407407407407408,102.14814814814818,0)" xlink:href="#ai"/></g><filter id="N" filterUnits="objectBoundingBox" x="-.04" y="-.02" width="1.08" height="1.1"><feOffset result="offOut" in="SourceAlpha" dy="6"/><feGaussianBlur result="blurOut" in="offOut" stdDeviation="5"/><feColorMatrix result="colorOut" in="blurOut" values="0 0 0 0 0 0 0 0 0 0 0 0 0 0 0 0 0 0 0.16862745098039217 0"/><feBlend in="SourceGraphic" in2="colorOut"/></filter><path fill="#3d4752" d="M127-220V0H93v-220H8v-28h204v28h-85" id="aN"/><path fill="#3d4752" d="M205 0l-28-72H64L36 0H1l101-248h38L239 0h-34zm-38-99l-47-123c-12 45-31 82-46 123h93" id="aO"/><path fill="#3d4752" d="M194 0L95-120 63-95V0H30v-248h33v124l119-124h40L117-140 236 0h-42" id="aP"/><g id="U"><use transform="matrix(0.07407407407407408,0,0,0.07407407407407408,0,0)" xlink:href="#aN"/><use transform="matrix(0.07407407407407408,0,0,0.07407407407407408,14.222222222222225,0)" xlink:href="#aO"/><use transform="matrix(0.07407407407407408,0,0,0.07407407407407408,32,0)" xlink:href="#aP"/></g><path fill="#3d4752" d="M209 0H11v-25l151-195H24v-28h176v25L50-27h159V0" id="aQ"/><g id="V"><use transform="matrix(0.07407407407407408,0,0,0.07407407407407408,0,0)" xlink:href="#aQ"/><use transform="matrix(0.07407407407407408,0,0,0.07407407407407408,16.222222222222225,0)" xlink:href="#ah"/><use transform="matrix(0.07407407407407408,0,0,0.07407407407407408,31.03703703703704,0)" xlink:href="#ag"/><use transform="matrix(0.07407407407407408,0,0,0.07407407407407408,45.851851851851855,0)" xlink:href="#Z"/><use transform="matrix(0.07407407407407408,0,0,0.07407407407407408,51.70370370370372,0)" xlink:href="#aa"/></g></defs></g></svg>